<svg width="41" height="22" viewBox="0 0 41 22" fill="none" xmlns="http://www.w3.org/2000/svg">
<path d="M40.9628 0.135883L40.9257 0.0987249L40.8142 0.0615662C39.8852 -0.0127508 39.1049 -0.0127508 38.2503 0.0244077L36.9126 0.0615662C27.8459 0.0615662 11.459 1.2878 3.95295 9.38836C1.01743 12.584 -0.283123 16.5228 0.0513041 21.1305L0.0884628 21.3162L22.5694 21.3534L22.718 21.0933L22.6808 20.9818C21.5289 18.4922 20.6 14.702 22.6437 10.8004C25.1333 6.00693 31.4131 2.58835 40.8514 0.841895L40.9628 0.804737L41 0.693261V0.284518L40.9628 0.135883Z" fill="#003DA6"/>
<path d="M37.2098 0.581395C38.0644 0.507078 40.777 0.395602 40.8141 0.395602C40.8141 0.358443 40.8141 0.284126 40.8141 0.246968C39.4021 0.0983337 38.3617 0.246968 36.9125 0.246968C17.9988 0.246968 -0.989199 5.15189 0.237033 21.1301C2.31791 21.1301 4.99332 21.1301 7.18568 21.1301C5.29059 7.15846 20.0425 1.77047 37.2098 0.581395Z" fill="white"/>
<path d="M40.8143 0.470215C34.6459 1.10191 11.5333 4.29754 14.9891 21.1304H22.4208C22.4208 21.1304 22.5323 21.056 22.5323 21.0189C19.1508 13.6243 21.8634 4.14891 40.8143 0.618849C40.8143 0.58169 40.8143 0.507373 40.8143 0.470215Z" fill="#ED1C2E"/>
<path fill-rule="evenodd" clip-rule="evenodd" d="M32.3792 18.7524C31.4874 19.2354 30.4841 19.4956 29.3322 19.4956C28.4404 19.4956 27.5857 19.3469 26.8425 19.0497C26.0994 18.7524 25.542 18.3436 25.1704 17.7863C24.9475 17.4518 24.7988 17.0803 24.7988 16.7458C24.7988 15.9655 25.2447 15.3338 26.1737 14.7764C27.0655 14.2562 28.1059 13.9961 29.3322 13.9961C30.4841 13.9961 31.4874 14.2562 32.3792 14.7393V16.1513C31.9704 15.7054 31.5617 15.371 31.1529 15.148C30.6327 14.8507 30.001 14.7021 29.3322 14.7021C28.4775 14.7021 27.7343 14.8879 27.177 15.2966C26.6196 15.7054 26.3223 16.1884 26.3223 16.7458C26.3223 17.3032 26.5824 17.7863 27.177 18.1578C27.7715 18.5666 28.4775 18.7895 29.3693 18.7895C30.4841 18.7895 31.4874 18.3065 32.4163 17.3032V18.7524H32.3792Z" fill="#003DA6"/>
<path fill-rule="evenodd" clip-rule="evenodd" d="M39.4022 13.9587V14.256C38.7705 14.0702 38.1017 13.9587 37.3956 13.9587C36.1694 13.9587 35.129 14.2189 34.2372 14.7391C33.3454 15.2593 32.8623 15.9281 32.8623 16.7085C32.8623 17.0801 32.9738 17.4145 33.2339 17.7489C33.6055 18.2691 34.1629 18.6779 34.906 19.0123C35.6492 19.3096 36.5038 19.4582 37.3956 19.4582C38.1017 19.4582 38.8077 19.3467 39.4022 19.1609V19.6068H40.8885V13.9587H39.4022ZM37.3956 18.7522C36.541 18.7522 35.7978 18.5292 35.2033 18.1205C34.6459 17.7118 34.3486 17.2658 34.3486 16.7085C34.3486 16.1511 34.6459 15.668 35.2033 15.2593C35.7978 14.8505 36.5038 14.6648 37.3585 14.6648C38.0273 14.6648 38.6219 14.8134 39.1793 15.1107C39.2536 15.1478 39.3279 15.185 39.4022 15.2221V18.0833C38.7705 18.5664 38.1017 18.7522 37.3956 18.7522Z" fill="#003DA6"/>
<path fill-rule="evenodd" clip-rule="evenodd" d="M22.978 14.9251C22.0862 14.4049 21.0458 14.1448 19.8196 14.1448C19.0764 14.1448 18.4075 14.2563 17.813 14.442V14.1448H16.3267V21.1677H17.813V19.3841C18.4447 19.5699 19.1136 19.6814 19.8196 19.6814C20.7114 19.6814 21.566 19.5328 22.3092 19.2355C23.0524 18.9382 23.6097 18.5295 23.9813 17.9721C24.2043 17.6377 24.3529 17.2661 24.3529 16.9317C24.3529 16.1142 23.8698 15.4825 22.978 14.9251ZM22.0119 18.3065C21.4174 18.7153 20.7114 18.9382 19.8196 18.9382C19.1136 18.9382 18.4075 18.7153 17.813 18.3437V15.4825C17.8873 15.4453 17.9616 15.4082 18.036 15.371C18.5562 15.0737 19.1879 14.9251 19.8567 14.9251C20.7114 14.9251 21.4545 15.1109 22.0119 15.5196C22.5693 15.9284 22.8666 16.4114 22.8666 16.9688C22.8294 17.4519 22.5693 17.9349 22.0119 18.3065Z" fill="#003DA6"/>
</svg>
